<?xml version="1.0" encoding="UTF-8"?>
<svg version="1.1" xmlns="http://www.w3.org/2000/svg" width="190" height="190">
<path d="M0 0 C18.02347239 -1.40195859 36.05513252 -2.34198402 54.125 -2.875 C55.43992432 -2.91437683 56.75484863 -2.95375366 58.10961914 -2.99432373 C115.60233342 -4.51831003 115.60233342 -4.51831003 135.1958313 13.2961731 C144.50427593 22.28454392 152.36172733 33.06752583 158.78027344 44.25366211 C159.1827832 44.82995361 159.58529297 45.40624512 160 46 C160.66 46 161.32 46 162 46 C162.89204738 49.06192447 163.12560287 51.79161094 163.12698364 54.97612 C163.12980347 55.9783107 163.13262329 56.9805014 163.13552856 58.01306152 C163.13249222 59.6534137 163.13249222 59.6534137 163.12939453 61.3269043 C163.13202301 63.0617382 163.13202301 63.0617382 163.13470459 64.83161926 C163.13911253 68.66250094 163.13618783 72.49333658 163.1328125 76.32421875 C163.13348607 78.98737139 163.13445508 81.65052263 163.13571167 84.31367493 C163.13753108 89.90142312 163.13513435 95.48915811 163.13037109 101.0769043 C163.12494222 107.5194978 163.12668202 113.96205958 163.1321975 120.4046523 C163.13675105 125.94708103 163.13736783 131.48950027 163.13475883 137.03193027 C163.13320665 140.33701958 163.13337037 143.64209091 163.13629532 146.94717979 C163.13884514 150.64018239 163.13494779 154.3331249 163.12939453 158.02612305 C163.13141876 159.10957001 163.13344299 160.19301697 163.13552856 161.30929565 C163.09022314 177.63777589 163.09022314 177.63777589 160 184 C159.731875 184.721875 159.46375 185.44375 159.1875 186.1875 C157.50881657 188.74970102 155.89931951 189.0742044 153 190 C150.01092052 190.24609566 150.01092052 190.24609566 146.6282196 190.24050903 C145.34239487 190.24325836 144.05657013 190.24600769 142.73178101 190.24884033 C141.31426908 190.24176293 139.8967581 190.23449333 138.47924805 190.22705078 C136.98099271 190.22648641 135.48273682 190.22680374 133.98448181 190.22793579 C129.92287538 190.22850929 125.86138723 190.21675549 121.79980826 190.20278788 C117.55305313 190.19028001 113.30629525 190.18910997 109.05952454 190.18673706 C101.02024034 190.18052246 92.98101058 190.1641119 84.94175035 190.14403808 C75.78824909 190.12167847 66.63474523 190.11068549 57.48122346 190.10064721 C38.65411812 190.07974567 19.82706344 190.04457006 1 190 C0.56880859 189.09121094 0.56880859 189.09121094 0.12890625 188.1640625 C-1.26720923 185.48777193 -3.09569232 183.33431264 -5 181 C-6.46031125 178.07937751 -6.13275467 175.51286705 -6.14044189 172.24989319 C-6.14341302 171.54793003 -6.14638414 170.84596687 -6.1494453 170.1227321 C-6.15815111 167.7589742 -6.15964211 165.39526683 -6.16113281 163.03149414 C-6.16575959 161.34150585 -6.17078406 159.65151861 -6.17617798 157.96153259 C-6.18931596 153.36242312 -6.19574945 148.76332824 -6.20018864 144.16420293 C-6.20311661 141.29338524 -6.20722084 138.42257157 -6.21169281 135.55175591 C-6.22537031 126.57682693 -6.2350362 117.60190712 -6.2388947 108.62696844 C-6.24337874 98.25299813 -6.26094158 87.87915936 -6.2898953 77.50522906 C-6.31147903 69.4950143 -6.32159718 61.48483664 -6.32293582 53.4745931 C-6.32398606 48.68626349 -6.32994045 43.89805748 -6.34775543 39.10975838 C-6.36417944 34.60770107 -6.36641939 30.10586106 -6.35761642 25.60378456 C-6.35684304 23.94894074 -6.36122818 22.2940855 -6.37107468 20.63927078 C-6.38370465 18.38494849 -6.3779671 16.13140628 -6.36749268 13.87709045 C-6.36895924 12.61406632 -6.3704258 11.35104219 -6.3719368 10.04974461 C-6 7 -6 7 -4.60203171 5.19518185 C-4.07336124 4.80077184 -3.54469078 4.40636183 -3 4 C-0.94729537 2.15811388 -0.94729537 2.15811388 0 0 Z " fill="#397ABA" transform="translate(17,0)"/>
<path d="M0 0 C3.93802435 0.55308781 5.73358572 2.36412183 8.49316406 5.13671875 C9.81408051 6.45313354 9.81408051 6.45313354 11.16168213 7.79614258 C12.11323219 8.7596956 13.06454084 9.7234871 14.015625 10.6875 C14.99581518 11.67074829 15.97659764 12.65340647 16.95794678 13.63549805 C19.01010299 15.69225233 21.05725464 17.75381464 23.10058594 19.81933594 C25.72570224 22.47280872 28.35948816 25.11745761 30.99658585 27.75901794 C33.01988649 29.78646478 35.04033973 31.81672756 37.05974579 33.84805298 C38.03056393 34.82458436 39.00186261 35.80063824 39.97364044 36.7762146 C41.32653745 38.13594937 42.67557924 39.49951676 44.02441406 40.86328125 C44.79400452 41.63969971 45.56359497 42.41611816 46.35650635 43.21606445 C48 45 48 45 48 46 C42.716476 46.12413398 37.43381136 46.21458908 32.14916992 46.2746582 C30.353772 46.29971327 28.55847517 46.33376738 26.76342773 46.37719727 C24.17406199 46.43825027 21.58605105 46.46629891 18.99609375 46.48828125 C17.80348183 46.52699089 17.80348183 46.52699089 16.58677673 46.56648254 C10.83453865 46.56933994 7.11605083 45.08941625 3 41 C-1.45772061 33.47703135 -0.33069283 24.47449374 -0.1875 16 C-0.17242973 14.44662752 -0.15874546 12.89324094 -0.14648438 11.33984375 C-0.11365497 7.55954385 -0.06200254 3.77992937 0 0 Z " fill="#2868A6" transform="translate(128,0)"/>
<path d="M0 0 C2.74475154 2.0409691 4.10052864 3.66668504 5.4375 6.8125 C5.1075 7.8025 4.7775 8.7925 4.4375 9.8125 C1.625 10.5 1.625 10.5 -1.5625 10.8125 C-2.0265625 10.3278125 -2.490625 9.843125 -2.96875 9.34375 C-4.47128719 7.59647462 -4.47128719 7.59647462 -6.82421875 7.51953125 C-7.62472656 7.55433594 -8.42523438 7.58914062 -9.25 7.625 C-10.46236328 7.66560547 -10.46236328 7.66560547 -11.69921875 7.70703125 C-12.31410156 7.74183594 -12.92898437 7.77664062 -13.5625 7.8125 C-13.8925 9.4625 -14.2225 11.1125 -14.5625 12.8125 C-14.005625 13.05484375 -13.44875 13.2971875 -12.875 13.546875 C-11.2739141 14.25005462 -9.67646972 14.96156246 -8.08203125 15.6796875 C-6.50361358 16.38936366 -4.91848439 17.08449263 -3.32421875 17.7578125 C1.43377292 19.89039634 4.27745601 21.83500733 6.4375 26.8125 C6.84728378 31.64453372 6.15736514 34.84582396 3.25 38.75 C-2.47973455 42.95180533 -8.60371467 43.85096489 -15.5625 42.8125 C-20.24502899 41.00015904 -22.97328535 39.11368235 -25.0625 34.5 C-25.2275 33.613125 -25.3925 32.72625 -25.5625 31.8125 C-23.46136305 30.53680971 -22.11176564 29.77706351 -19.625 29.9375 C-17.5625 30.8125 -17.5625 30.8125 -15.25 32.875 C-11.80930005 35.35550461 -9.71595284 35.20433517 -5.5625 34.8125 C-4.5725 34.3175 -4.5725 34.3175 -3.5625 33.8125 C-3.5625 32.1625 -3.5625 30.5125 -3.5625 28.8125 C-4.119375 28.57015625 -4.67625 28.3278125 -5.25 28.078125 C-7.69443108 27.0045573 -10.12892487 25.91043855 -12.5625 24.8125 C-13.30113281 24.48894531 -14.03976563 24.16539063 -14.80078125 23.83203125 C-19.10318143 21.84693136 -22.21534584 20.11561596 -24.5625 15.8125 C-25.17867063 10.96015626 -25.09487687 8.85753608 -22.875 4.5 C-16.77048179 -2.59444008 -8.55077179 -2.85025726 0 0 Z " fill="#F1F3F3" transform="translate(95.5625,72.1875)"/>
<path d="M0 0 C5.92716549 2.84010013 8.71403876 7.54670263 12 13 C17.76828419 12.59687976 21.15652278 10.8662796 25.8125 7.4375 C30.72566736 4.07999437 34.69904844 1.62552201 40.87890625 2.234375 C45.67932651 3.96712338 47.95761272 8.23247374 50.4375 12.4375 C52.02865801 14.34554944 52.02865801 14.34554944 55.3125 14.4375 C59.19170164 13.97725574 61.56026944 12.75808451 65 11 C67.375 11.3125 67.375 11.3125 69 12 C69 14.25 69 14.25 68 17 C63.36518574 20.78772027 58.10506985 21.65606982 52.2578125 21.37890625 C47.24984426 20.53846867 45.00649518 17.11045729 42.1875 13.25 C41.1046875 11.64125 41.1046875 11.64125 40 10 C33.74629708 10.13595006 30.26787521 12.58533508 25.33203125 16.30859375 C20.88330466 19.53522459 17.65044404 20.51836269 12.17578125 20.375 C8.55920871 19.75167691 7.17813396 17.8436749 5 15 C4.60425781 14.37609375 4.20851562 13.7521875 3.80078125 13.109375 C1.32919873 9.04308902 1.32919873 9.04308902 -2.9375 7.3125 C-7.60557002 8.36043409 -10.547977 10.84404552 -14.203125 13.75390625 C-14.98171875 14.37136719 -15.7603125 14.98882812 -16.5625 15.625 C-17.28566406 16.21539062 -18.00882813 16.80578125 -18.75390625 17.4140625 C-22.52041229 20.07354329 -25.05717655 21.06392023 -29.6875 20.75 C-33 20 -33 20 -35 18 C-34.625 15.875 -34.625 15.875 -34 14 C-32.783125 14.04125 -31.56625 14.0825 -30.3125 14.125 C-23.9774015 13.48347104 -19.796976 9.36900058 -15.11328125 5.4453125 C-10.3282351 1.68691991 -6.19646348 -0.90365092 0 0 Z " fill="#F1F3F4" transform="translate(76,130)"/>
<path d="M0 0 C11.88 0 23.76 0 36 0 C36 2.97 36 5.94 36 9 C31.71 9 27.42 9 23 9 C23 19.89 23 30.78 23 42 C19.7 42 16.4 42 13 42 C13 31.11 13 20.22 13 9 C8.71 9 4.42 9 0 9 C0 6.03 0 3.06 0 0 Z " fill="#EBEFF1" transform="translate(32,72)"/>
<path d="M0 0 C1.98 0 3.96 0 6 0 C6 10.23 6 20.46 6 31 C3.69 31 1.38 31 -1 31 C-2.19625 31.2475 -3.3925 31.495 -4.625 31.75 C-8 32 -8 32 -10.875 30.1875 C-14.82035569 26.12610444 -14.33895247 22.393636 -14.2734375 16.9296875 C-14 14 -14 14 -12.4375 10.8125 C-9.27994211 8.46457234 -6.89699708 8.14433323 -3 8 C-2.34 8.33 -1.68 8.66 -1 9 C-0.67 6.03 -0.34 3.06 0 0 Z " fill="#EDF0F2" transform="translate(155,79)"/>
<path d="M0 0 C2.01202592 0 4.02582672 -0.00133843 6.03515625 -0.10546875 C11.54030928 -0.32822061 11.54030928 -0.32822061 13.7277832 1.23364258 C15.33823314 3.46960598 15.34806323 4.71285975 15.29296875 7.44921875 C15.28330078 8.29677734 15.27363281 9.14433594 15.26367188 10.01757812 C15.23853516 10.89865234 15.21339844 11.77972656 15.1875 12.6875 C15.16719727 14.02651367 15.16719727 14.02651367 15.14648438 15.39257812 C15.11114079 17.59566166 15.06180493 19.79752582 15 22 C13.02 22 11.04 22 9 22 C8.67 16.39 8.34 10.78 8 5 C6.68 5.33 5.36 5.66 4 6 C3.67 11.28 3.34 16.56 3 22 C1.02 22 -0.96 22 -3 22 C-3.33 16.39 -3.66 10.78 -4 5 C-5.32 5.33 -6.64 5.66 -8 6 C-8.33 11.28 -8.66 16.56 -9 22 C-10.98 22 -12.96 22 -15 22 C-15 14.74 -15 7.48 -15 0 C-13.35 0 -11.7 0 -10 0 C-10 0.66 -10 1.32 -10 2 C-9.278125 1.484375 -8.55625 0.96875 -7.8125 0.4375 C-4.50002035 -1.25554515 -3.48206815 -0.98212179 0 0 Z " fill="#EEF0F2" transform="translate(123,88)"/>
<path d="M0 0 C0.33 0 0.66 0 1 0 C1 9.9 1 19.8 1 30 C-1.31 30 -3.62 30 -6 30 C-7.19625 30.2475 -8.3925 30.495 -9.625 30.75 C-13 31 -13 31 -15.875 29.1875 C-19.82035569 25.12610444 -19.33895247 21.393636 -19.2734375 15.9296875 C-19 13 -19 13 -17.4375 9.8125 C-14.26355871 7.45238981 -11.9249829 7.07268487 -8 7 C-7.34 7.66 -6.68 8.32 -6 9 C-6.66 9 -7.32 9 -8 9 C-8 9.66 -8 10.32 -8 11 C-7.34 11 -6.68 11 -6 11 C-6.33 11.66 -6.66 12.32 -7 13 C-9.5625 13.625 -9.5625 13.625 -12 14 C-12 17.3 -12 20.6 -12 24 C-10.35 24.33 -8.7 24.66 -7 25 C-6.67 25.99 -6.34 26.98 -6 28 C-4.02 28.33 -2.04 28.66 0 29 C0 19.43 0 9.86 0 0 Z " fill="#F2F3F4" transform="translate(160,80)"/>
<path d="M0 0 C4.55555556 0.55555556 4.55555556 0.55555556 6 2 C6.1245486 3.64230364 6.17568524 5.29052276 6.1875 6.9375 C6.20167969 7.83339844 6.21585938 8.72929688 6.23046875 9.65234375 C6 12 6 12 4 14 C-0.55555556 13.44444444 -0.55555556 13.44444444 -2 12 C-2.1245486 10.35769636 -2.17568524 8.70947724 -2.1875 7.0625 C-2.20167969 6.16660156 -2.21585938 5.27070312 -2.23046875 4.34765625 C-2 2 -2 2 0 0 Z " fill="#3275B7" transform="translate(149,92)"/>
<path d="M0 0 C0.66 0.66 1.32 1.32 2 2 C1.34 2 0.68 2 0 2 C0 1.34 0 0.68 0 0 Z " fill="#000000" transform="translate(14,185)"/>
<path d="" fill="#000000" transform="translate(0,0)"/>
<path d="" fill="#000000" transform="translate(0,0)"/>
<path d="" fill="#000000" transform="translate(0,0)"/>
<path d="" fill="#000000" transform="translate(0,0)"/>
<path d="" fill="#000000" transform="translate(0,0)"/>
<path d="" fill="#000000" transform="translate(0,0)"/>
<path d="" fill="#000000" transform="translate(0,0)"/>
<path d="" fill="#000000" transform="translate(0,0)"/>
<path d="" fill="#000000" transform="translate(0,0)"/>
<path d="" fill="#000000" transform="translate(0,0)"/>
<path d="" fill="#000000" transform="translate(0,0)"/>
<path d="" fill="#000000" transform="translate(0,0)"/>
<path d="" fill="#000000" transform="translate(0,0)"/>
<path d="" fill="#000000" transform="translate(0,0)"/>
<path d="" fill="#000000" transform="translate(0,0)"/>
<path d="" fill="#000000" transform="translate(0,0)"/>
<path d="" fill="#000000" transform="translate(0,0)"/>
<path d="" fill="#000000" transform="translate(0,0)"/>
<path d="" fill="#000000" transform="translate(0,0)"/>
<path d="" fill="#000000" transform="translate(0,0)"/>
<path d="" fill="#000000" transform="translate(0,0)"/>
<path d="" fill="#000000" transform="translate(0,0)"/>
<path d="" fill="#000000" transform="translate(0,0)"/>
<path d="" fill="#000000" transform="translate(0,0)"/>
<path d="" fill="#000000" transform="translate(0,0)"/>
<path d="" fill="#000000" transform="translate(0,0)"/>
<path d="" fill="#000000" transform="translate(0,0)"/>
<path d="" fill="#000000" transform="translate(0,0)"/>
<path d="" fill="#000000" transform="translate(0,0)"/>
<path d="" fill="#000000" transform="translate(0,0)"/>
<path d="" fill="#000000" transform="translate(0,0)"/>
<path d="" fill="#000000" transform="translate(0,0)"/>
<path d="" fill="#000000" transform="translate(0,0)"/>
<path d="" fill="#000000" transform="translate(0,0)"/>
<path d="" fill="#000000" transform="translate(0,0)"/>
<path d="" fill="#000000" transform="translate(0,0)"/>
<path d="" fill="#000000" transform="translate(0,0)"/>
<path d="" fill="#000000" transform="translate(0,0)"/>
<path d="" fill="#000000" transform="translate(0,0)"/>
<path d="" fill="#000000" transform="translate(0,0)"/>
<path d="" fill="#000000" transform="translate(0,0)"/>
<path d="" fill="#000000" transform="translate(0,0)"/>
<path d="" fill="#000000" transform="translate(0,0)"/>
<path d="" fill="#000000" transform="translate(0,0)"/>
<path d="" fill="#000000" transform="translate(0,0)"/>
<path d="" fill="#000000" transform="translate(0,0)"/>
<path d="" fill="#000000" transform="translate(0,0)"/>
<path d="" fill="#000000" transform="translate(0,0)"/>
<path d="" fill="#000000" transform="translate(0,0)"/>
<path d="" fill="#000000" transform="translate(0,0)"/>
<path d="" fill="#000000" transform="translate(0,0)"/>
<path d="" fill="#000000" transform="translate(0,0)"/>
<path d="" fill="#000000" transform="translate(0,0)"/>
<path d="" fill="#000000" transform="translate(0,0)"/>
<path d="" fill="#000000" transform="translate(0,0)"/>
<path d="" fill="#000000" transform="translate(0,0)"/>
<path d="" fill="#000000" transform="translate(0,0)"/>
<path d="" fill="#000000" transform="translate(0,0)"/>
</svg>
